PathFileType	4	(X/Y/Z)	DARI_DATA/Captury_Subj8_bilateral_squat02.trc
DataRate	CameraRate	NumFrames	NumMarkers	Units	OrigDataRate	OrigDataStartFrame	OrigNumFrames
60	60	4	47	mm	59.99879837036133	90	239
Frame#	Time		LeftUpLeg_		RightUpLeg_		LeftLeg_		RightLeg_		LeftFoot_		RightFoot_		LeftToeBase_		RightToeBase_		Knee_Lateral_r		Knee_Lateral_l		Ankle_Lateral_r		Ankle_Lateral_l		LeftArm_		LeftForeArm_		LeftHand_		LeftHandEE		RightArm_		RightForeArm_		RightHand_		RightHandEE		Spine_		Spine1_		Spine2_		Spine3_		Spine4_		Spine5_		Spine_x		Spine_y		Spine_z		RASI		LASI		RIPS		LIPS		RTHI		LTHI		RTIB		LTIB		RTOE		LTOE		RHEE		LHEE		RHipAngles		LHipAngles		RKneeAngles		LKneeAngles		RAnkleAngles		LAnkleAngles
			X1	Y1	Z1	X2	Y2	Z2	X3	Y3	Z3	X4	Y4	Z4	X5	Y5	Z5	X6	Y6	Z6	X7	Y7	Z7	X8	Y8	Z8	X9	Y9	Z9	X10	Y10	Z10	X11	Y11	Z11	X12	Y12	Z12	X13	Y13	Z13	X14	Y14	Z14	X15	Y15	Z15	X16	Y16	Z16	X17	Y17	Z17	X18	Y18	Z18	X19	Y19	Z19	X20	Y20	Z20	X21	Y21	Z21	X22	Y22	Z22	X23	Y23	Z23	X24	Y24	Z24	X25	Y25	Z25	X26	Y26	Z26	X27	Y27	Z27	X28	Y28	Z28	X29	Y29	Z29	X30	Y30	Z30	X31	Y31	Z31	X32	Y32	Z32	X33	Y33	Z33	X34	Y34	Z34	X35	Y35	Z35	X36	Y36	Z36	X37	Y37	Z37	X38	Y38	Z38	X39	Y39	Z39	X40	Y40	Z40	X41	Y41	Z41	X42	Y42	Z42	X43	Y43	Z43	X44	Y44	Z44	X45	Y45	Z45	X46	Y46	Z46	X47	Y47	Z47

90	1.48333	-72.83436	716.60126	208.69666	103.06753	713.11780	187.80278	-138.82654	438.96097	-107.52747	170.04384	434.83502	-127.64879	-124.15878	92.44461	80.16435	134.75568	102.62958	81.90111	-164.95091	35.82073	-36.55908	175.44833	31.15511	-26.40464	217.97357	432.07904	-118.40549	-187.11745	437.99185	-99.95499	179.37213	104.07565	110.13550	-169.50600	93.07328	107.24080	-141.80498	1161.34167	55.86657	-164.09280	1155.60522	-223.82808	-149.90260	1179.02759	-463.39441	-145.16829	1178.56299	-551.26489	146.39078	1160.50452	53.50872	177.79630	1149.01050	-225.13147	171.38744	1164.93628	-465.64618	180.71074	1166.39087	-553.13800	20.55379	809.61780	228.22620	17.50093	898.81152	199.16316	14.69493	963.83252	193.43631	7.40153	1050.26636	193.63503	-4.74392	1160.94397	124.80022	-27904771620864.00000	0.00000	-27904805175296.00000	70.04227	808.63776	222.34789	22.17719	859.14270	233.63641	26.28786	804.05493	277.42783	154.28340	790.31354	89.26122	-142.64751	796.19385	124.53111	62.61098	775.78107	249.79839	-16.57060	777.34918	259.20370	202.15274	576.42273	55.09544	-172.12711	582.74561	73.27785	195.08110	276.37201	-39.11858	-168.63136	222.33035	-7.52193	196.33492	17.06930	-98.81799	-186.86584	14.16917	-106.76804	129.57903	46.22169	144.43433	-123.73598	29.18294	135.99298	-44.05704	12.12271	12.87735	-42.02302	0.09869	3.05146	-76.11702	0.38142	0.24708	-71.96893	0.04419	0.22878	-16.47931	5.60956	12.19982	-19.19286	5.60783	12.19263
91	1.50000	-73.17229	706.62115	210.55504	102.72240	702.95453	189.63223	-139.73364	436.17001	-111.72209	171.06795	432.19788	-132.01437	-124.28325	92.00711	80.18962	134.63112	102.77811	81.69545	-165.04137	35.52918	-36.61637	175.22095	30.95719	-26.41953	219.00252	429.43109	-122.79945	-188.03458	435.18823	-104.21548	179.24510	104.21835	109.93402	-169.63858	92.58051	107.25369	-142.38939	1148.75671	52.93367	-161.77322	1144.43335	-227.00264	-148.12375	1167.56433	-466.62872	-143.99268	1167.28210	-554.53040	146.02203	1147.94250	51.01231	178.32794	1137.15540	-227.55321	173.36229	1153.64441	-468.06409	182.54781	1155.88623	-555.55383	20.29066	799.61261	229.84459	17.27012	888.61902	200.20976	14.50524	953.58832	193.90538	7.30815	1040.02698	193.12410	-4.82228	1149.80310	122.85786	-27904771620864.00000	0.00000	-27904805175296.00000	69.77711	798.58099	223.95815	21.95285	849.14899	235.13722	26.03100	794.16187	279.05804	153.97589	779.87781	90.89740	-142.94287	786.06738	126.21609	62.32671	765.79510	251.48792	-16.85162	767.44562	260.90625	202.46465	569.72485	53.92676	-172.75539	576.07233	72.15399	195.55302	274.76624	-41.51157	-169.03949	220.69937	-9.09743	196.08313	16.75353	-98.81689	-186.92987	14.06335	-106.89058	129.34712	46.53946	144.37198	-123.83206	28.66631	135.92822	-45.52267	12.43220	12.54996	-43.41633	0.05255	3.04841	-78.18736	0.30282	0.27004	-73.94690	-0.00120	0.27600	-17.06304	5.61019	12.20198	-19.98167	5.62071	12.18518
92	1.51667	-73.65137	697.05078	212.55409	102.28677	692.59924	192.15541	-140.49464	433.57077	-115.38954	172.06775	430.02112	-135.89964	-124.49810	91.52060	80.21910	134.43332	103.07648	81.37381	-165.11298	35.36977	-36.79430	175.05255	31.10884	-26.63247	219.97740	427.09766	-126.60385	-188.81328	432.59897	-107.99640	179.02303	104.47775	109.65266	-169.88492	92.00628	107.23206	-142.89430	1137.02332	49.75767	-159.61473	1133.68799	-230.36380	-146.32983	1156.19019	-470.07019	-142.83423	1156.24365	-557.99988	145.61662	1136.12878	48.32269	178.85648	1125.47974	-230.13818	174.73106	1142.27686	-470.64355	183.72321	1145.06226	-558.13776	20.08902	789.85492	231.39426	17.34564	878.58344	200.91119	14.62466	943.48462	193.92300	7.33985	1029.90100	192.13905	-5.05331	1138.77002	120.52043	-27904771620864.00000	0.00000	-27904805175296.00000	69.58771	788.60254	225.65526	21.91339	839.42419	236.31213	25.67259	784.76123	280.66394	154.08990	768.58099	92.97926	-142.90222	776.09534	127.41324	61.94349	756.05524	253.41415	-17.25442	758.05908	262.59656	202.66402	562.93170	53.49980	-173.40376	569.74207	71.28630	195.98486	273.50418	-43.67487	-169.43341	219.14171	-10.50391	195.94937	16.92179	-99.02309	-186.90334	14.20092	-107.18900	129.04897	46.90747	144.10422	-124.11081	28.02319	135.77972	-47.40383	12.73111	12.14314	-45.02667	-0.00754	3.25285	-80.25720	0.41920	0.29185	-75.77802	-0.07738	0.31391	-17.64957	5.61187	12.23664	-20.76921	5.61911	12.19601
93	1.53333	-74.00621	687.97705	213.96359	101.99069	683.18024	194.15884	-141.43115	430.64212	-118.70651	172.81181	427.83850	-139.34042	-124.59551	90.78946	80.62650	134.45047	103.15256	81.16896	-165.19603	34.93584	-36.53407	175.00601	31.08989	-26.79789	220.73283	424.91083	-130.10475	-189.75845	429.69263	-111.36736	179.05331	104.52406	109.42856	-169.98145	91.18330	107.64244	-143.49309	1125.56885	46.44453	-157.64140	1123.30322	-233.82935	-145.19566	1144.89697	-473.66431	-141.83133	1145.08044	-561.59894	145.17148	1124.35852	45.58541	179.07358	1113.93567	-232.80423	175.49101	1130.92554	-473.30484	184.94092	1134.18005	-560.73462	19.82406	780.68024	232.85283	17.24387	869.20111	201.75792	14.54929	934.03552	194.16582	7.25559	1020.42407	191.36221	-5.21802	1128.30737	118.28091	-27904771620864.00000	0.00000	-27904805175296.00000	69.33928	779.33075	227.28093	21.71376	830.26007	237.63759	25.23666	775.71600	282.15482	154.24567	758.79797	94.94154	-142.84564	766.89502	128.37291	61.54998	746.87421	255.10565	-17.67437	749.03339	264.02069	202.88135	556.85748	52.81427	-174.05284	563.54510	70.35995	196.37000	272.16797	-45.60307	-169.83952	217.29608	-11.49325	195.84694	16.94156	-99.21221	-186.96584	14.05820	-107.02205	129.10352	47.03885	143.95203	-124.19955	27.14800	136.02199	-48.74071	12.83429	11.63906	-46.22098	0.10183	3.39645	-82.06746	0.35060	0.31654	-77.46265	-0.17573	0.33815	-18.19021	5.61440	12.29937	-21.55712	5.61573	12.21197
